. 
 
http://www.torrenting.com          :     Once & For all ;)


               www . Torrenting . Com 

(((((((((((((= Enjoy No RAR releases =))))))))))))))))))))


...................................NFO:....................................

.








































          
          
              
              
                    
                    
                    
                    

The.Revenant.2011.BRRiP.AC3-5.1.XviD-SiC

Poster:
[img]http://img27.imageshack.us/img27/9875/mv5bmtu5nzu0mze4nf5bml5.jpg[/img]

IMDB Link:
http://www.imdb.com/title/tt1336006/

Description:
A horror movie/buddy comedy about Joey and his undead friend Bart who comes back from the dead as a revenant: an articulate zombie that needs to drink blood to arrest the decomposition of his body.   

General
Complete name                            : The.Revenant.2009.BRRiP.AC3-5.1.XviD-SiC.avi
Format                                   : AVI
Format/Info                              : Audio Video Interleave
File size                                : 1.37 GiB
Duration                                 : 1h 57mn
Overall bit rate                         : 1 673 Kbps

Video
ID                                       : 0
Format                                   : MPEG-4 Visual
Format profile                           : Advanced Simple@L5
Format settings, BVOP                    : 2
Format settings, QPel                    : No
Format settings, GMC                     : No warppoints
Format settings, Matrix                  : Default (H.263)
Muxing mode                              : Packed bitstream
Codec ID                                 : XVID
Codec ID/Hint                            : XviD
Duration                                 : 1h 57mn
Bit rate                                 : 1 281 Kbps
Width                                    : 720 pixels
Height                                   : 304 pixels
Display aspect ratio                     : 2.35:1
Frame rate                               : 23.976 fps
Color space                              : YUV
Chroma subsampling                       : 4:2:0
Bit depth                                : 8 bits
Scan type                                : Progressive
Compression mode                         : Lossy
Bits/(Pixel*Frame)                       : 0.244
Stream size                              : 1.05 GiB (77%)
Writing library                          : XviD 1.3.0.dev55

Audio
ID                                       : 1
Format                                   : AC-3
Format/Info                              : Audio Coding 3
Mode extension                           : CM (complete main)
Codec ID                                 : 2000
Duration                                 : 1h 57mn
Bit rate mode                            : Constant
Bit rate                                 : 384 Kbps
Channel(s)                               : 6 channels
Channel positions                        : Front: L C R, Side: L R, LFE
Sampling rate                            : 48.0 KHz
Bit depth                                : 16 bits
Compression mode                         : Lossy
Stream size                              : 322 MiB (23%)
Alignment                                : Aligned on interleaves
Interleave, duration                     : 64 ms (1.53 video frames)
Interleave, preload duration             : 192 ms
Title                                    : aaf-the.revenant.2009.1080p.bluray.x264 - [2] 


Screenshots:
[img]http://img198.imageshack.us/img198/7910/snap1k.png[/img]
[img]http://img263.imageshack.us/img263/7880/snap2ub.png[/img]
[img]http://img823.imageshack.us/img823/954/snap3v.png[/img]
[img]http://img440.imageshack.us/img440/9606/snap4u.png[/img]
[img]http://img860.imageshack.us/img860/1268/snap5k.png[/img]


Note: Video was nice! Added contrast, saturation, denoised and sharpened. Took english DTS and encoded to AC3.

Source: 1080p aAF

Enjoy!

Respects to T00NG0D, ELEKTRI4KA, PA, YeFsTe, MrRep and everyone in the struggle...RiP MU